<mxfile host="app.diagrams.net" modified="2021-03-10T21:11:01.985Z" agent="5.0 (Macintosh)" etag="X_obmEPL9Lq0cgShgAGW" version="14.4.2" type="github">
  <diagram id="eLuVJv_EfQPYATGsu1Y8" name="Page-1">
    <mxGraphModel dx="2975" dy="1032" grid="1" gridSize="10" guides="1" tooltips="1" connect="1" arrows="1" fold="1" page="1" pageScale="1" pageWidth="850" pageHeight="1100" math="0" shadow="0">
      <root>
        <mxCell id="0" />
        <mxCell id="1" parent="0" />
        <mxCell id="9seu_ElrW7bkLvOsGuvo-1" value="GlobalCanvasNodeCategory&#xa;" style="swimlane;fontStyle=1;align=center;verticalAlign=top;childLayout=stackLayout;horizontal=1;startSize=26;horizontalStack=0;resizeParent=1;resizeParentMax=0;resizeLast=0;collapsible=1;marginBottom=0;" parent="1" vertex="1">
          <mxGeometry x="-40" y="112" width="210" height="60" as="geometry" />
        </mxCell>
        <mxCell id="9seu_ElrW7bkLvOsGuvo-3" value="" style="line;strokeWidth=1;fillColor=none;align=left;verticalAlign=middle;spacingTop=-1;spacingLeft=3;spacingRight=3;rotatable=0;labelPosition=right;points=[];portConstraint=eastwest;" parent="9seu_ElrW7bkLvOsGuvo-1" vertex="1">
          <mxGeometry y="26" width="210" height="8" as="geometry" />
        </mxCell>
        <mxCell id="9seu_ElrW7bkLvOsGuvo-2" value="name: string" style="text;strokeColor=none;fillColor=none;align=left;verticalAlign=top;spacingLeft=4;spacingRight=4;overflow=hidden;rotatable=0;points=[[0,0.5],[1,0.5]];portConstraint=eastwest;" parent="9seu_ElrW7bkLvOsGuvo-1" vertex="1">
          <mxGeometry y="34" width="210" height="26" as="geometry" />
        </mxCell>
        <mxCell id="9seu_ElrW7bkLvOsGuvo-191" style="edgeStyle=orthogonalEdgeStyle;rounded=0;orthogonalLoop=1;jettySize=auto;html=1;exitX=0.5;exitY=1;exitDx=0;exitDy=0;entryX=0.5;entryY=0;entryDx=0;entryDy=0;fontSize=12;" parent="1" source="9seu_ElrW7bkLvOsGuvo-7" target="9seu_ElrW7bkLvOsGuvo-56" edge="1">
          <mxGeometry relative="1" as="geometry">
            <Array as="points">
              <mxPoint x="355" y="230" />
              <mxPoint x="-170" y="230" />
            </Array>
          </mxGeometry>
        </mxCell>
        <mxCell id="9seu_ElrW7bkLvOsGuvo-198" style="edgeStyle=orthogonalEdgeStyle;rounded=0;orthogonalLoop=1;jettySize=auto;html=1;exitX=0.5;exitY=1;exitDx=0;exitDy=0;entryX=0.434;entryY=0.012;entryDx=0;entryDy=0;entryPerimeter=0;fontSize=12;" parent="1" source="9seu_ElrW7bkLvOsGuvo-7" target="9seu_ElrW7bkLvOsGuvo-50" edge="1">
          <mxGeometry relative="1" as="geometry" />
        </mxCell>
        <mxCell id="9seu_ElrW7bkLvOsGuvo-199" style="edgeStyle=orthogonalEdgeStyle;rounded=0;orthogonalLoop=1;jettySize=auto;html=1;exitX=0.5;exitY=1;exitDx=0;exitDy=0;entryX=0.5;entryY=0;entryDx=0;entryDy=0;fontSize=12;" parent="1" source="9seu_ElrW7bkLvOsGuvo-7" target="9seu_ElrW7bkLvOsGuvo-76" edge="1">
          <mxGeometry relative="1" as="geometry" />
        </mxCell>
        <mxCell id="9seu_ElrW7bkLvOsGuvo-206" style="edgeStyle=orthogonalEdgeStyle;rounded=0;orthogonalLoop=1;jettySize=auto;html=1;fontSize=12;" parent="1" source="9seu_ElrW7bkLvOsGuvo-7" target="9seu_ElrW7bkLvOsGuvo-43" edge="1">
          <mxGeometry relative="1" as="geometry">
            <Array as="points">
              <mxPoint x="355" y="230" />
              <mxPoint x="89" y="230" />
            </Array>
          </mxGeometry>
        </mxCell>
        <mxCell id="9seu_ElrW7bkLvOsGuvo-7" value="GlobalCanvasNode&#xa;" style="swimlane;fontStyle=1;align=center;verticalAlign=top;childLayout=stackLayout;horizontal=1;startSize=26;horizontalStack=0;resizeParent=1;resizeParentMax=0;resizeLast=0;collapsible=1;marginBottom=0;" parent="1" vertex="1">
          <mxGeometry x="200" y="112" width="310" height="82" as="geometry" />
        </mxCell>
        <mxCell id="9seu_ElrW7bkLvOsGuvo-10" value="catgeory: string serialized GlobalCanvasNodeCategory" style="text;strokeColor=none;fillColor=none;align=left;verticalAlign=top;spacingLeft=4;spacingRight=4;overflow=hidden;rotatable=0;points=[[0,0.5],[1,0.5]];portConstraint=eastwest;" parent="9seu_ElrW7bkLvOsGuvo-7" vertex="1">
          <mxGeometry y="26" width="310" height="34" as="geometry" />
        </mxCell>
        <mxCell id="9seu_ElrW7bkLvOsGuvo-8" value="data: GlobalCanvasNodeData" style="text;strokeColor=none;fillColor=none;align=left;verticalAlign=top;spacingLeft=4;spacingRight=4;overflow=hidden;rotatable=0;points=[[0,0.5],[1,0.5]];portConstraint=eastwest;" parent="9seu_ElrW7bkLvOsGuvo-7" vertex="1">
          <mxGeometry y="60" width="310" height="22" as="geometry" />
        </mxCell>
        <mxCell id="9seu_ElrW7bkLvOsGuvo-17" value="TypeInfo" style="swimlane;fontStyle=1;align=center;verticalAlign=top;childLayout=stackLayout;horizontal=1;startSize=26;horizontalStack=0;resizeParent=1;resizeParentMax=0;resizeLast=0;collapsible=1;marginBottom=0;" parent="1" vertex="1">
          <mxGeometry x="80" y="662" width="160" height="138" as="geometry" />
        </mxCell>
        <mxCell id="9seu_ElrW7bkLvOsGuvo-18" value="name: string" style="text;strokeColor=none;fillColor=none;align=left;verticalAlign=top;spacingLeft=4;spacingRight=4;overflow=hidden;rotatable=0;points=[[0,0.5],[1,0.5]];portConstraint=eastwest;" parent="9seu_ElrW7bkLvOsGuvo-17" vertex="1">
          <mxGeometry y="26" width="160" height="26" as="geometry" />
        </mxCell>
        <mxCell id="9seu_ElrW7bkLvOsGuvo-19" value="" style="line;strokeWidth=1;fillColor=none;align=left;verticalAlign=middle;spacingTop=-1;spacingLeft=3;spacingRight=3;rotatable=0;labelPosition=right;points=[];portConstraint=eastwest;" parent="9seu_ElrW7bkLvOsGuvo-17" vertex="1">
          <mxGeometry y="52" width="160" height="8" as="geometry" />
        </mxCell>
        <mxCell id="9seu_ElrW7bkLvOsGuvo-20" value="description: string" style="text;strokeColor=none;fillColor=none;align=left;verticalAlign=top;spacingLeft=4;spacingRight=4;overflow=hidden;rotatable=0;points=[[0,0.5],[1,0.5]];portConstraint=eastwest;" parent="9seu_ElrW7bkLvOsGuvo-17" vertex="1">
          <mxGeometry y="60" width="160" height="26" as="geometry" />
        </mxCell>
        <mxCell id="9seu_ElrW7bkLvOsGuvo-142" value="fields: [FieldInfo]" style="text;strokeColor=none;fillColor=none;align=left;verticalAlign=top;spacingLeft=4;spacingRight=4;overflow=hidden;rotatable=0;points=[[0,0.5],[1,0.5]];portConstraint=eastwest;fontSize=12;" parent="9seu_ElrW7bkLvOsGuvo-17" vertex="1">
          <mxGeometry y="86" width="160" height="26" as="geometry" />
        </mxCell>
        <mxCell id="9seu_ElrW7bkLvOsGuvo-194" value="...&#xa;" style="text;strokeColor=none;fillColor=none;align=left;verticalAlign=top;spacingLeft=4;spacingRight=4;overflow=hidden;rotatable=0;points=[[0,0.5],[1,0.5]];portConstraint=eastwest;fontSize=12;" parent="9seu_ElrW7bkLvOsGuvo-17" vertex="1">
          <mxGeometry y="112" width="160" height="26" as="geometry" />
        </mxCell>
        <mxCell id="9seu_ElrW7bkLvOsGuvo-43" value="GlobalCanvasEntityNode" style="swimlane;fontStyle=1;align=center;verticalAlign=top;childLayout=stackLayout;horizontal=1;startSize=26;horizontalStack=0;resizeParent=1;resizeParentMax=0;resizeLast=0;collapsible=1;marginBottom=0;" parent="1" vertex="1">
          <mxGeometry x="-20" y="310" width="217" height="86" as="geometry" />
        </mxCell>
        <mxCell id="9seu_ElrW7bkLvOsGuvo-44" value="category = &#39;Entity&#39;" style="text;strokeColor=none;fillColor=none;align=left;verticalAlign=top;spacingLeft=4;spacingRight=4;overflow=hidden;rotatable=0;points=[[0,0.5],[1,0.5]];portConstraint=eastwest;" parent="9seu_ElrW7bkLvOsGuvo-43" vertex="1">
          <mxGeometry y="26" width="217" height="26" as="geometry" />
        </mxCell>
        <mxCell id="9seu_ElrW7bkLvOsGuvo-169" value="data: ~ GlobalCanvasTypeNodeData" style="text;strokeColor=none;fillColor=none;align=left;verticalAlign=top;spacingLeft=4;spacingRight=4;overflow=hidden;rotatable=0;points=[[0,0.5],[1,0.5]];portConstraint=eastwest;fontSize=12;" parent="9seu_ElrW7bkLvOsGuvo-43" vertex="1">
          <mxGeometry y="52" width="217" height="26" as="geometry" />
        </mxCell>
        <mxCell id="9seu_ElrW7bkLvOsGuvo-45" value="" style="line;strokeWidth=1;fillColor=none;align=left;verticalAlign=middle;spacingTop=-1;spacingLeft=3;spacingRight=3;rotatable=0;labelPosition=right;points=[];portConstraint=eastwest;" parent="9seu_ElrW7bkLvOsGuvo-43" vertex="1">
          <mxGeometry y="78" width="217" height="8" as="geometry" />
        </mxCell>
        <mxCell id="9seu_ElrW7bkLvOsGuvo-50" value="GlobalCanvasSourceCollectionNode" style="swimlane;fontStyle=1;align=center;verticalAlign=top;childLayout=stackLayout;horizontal=1;startSize=26;horizontalStack=0;resizeParent=1;resizeParentMax=0;resizeLast=0;collapsible=1;marginBottom=0;" parent="1" vertex="1">
          <mxGeometry x="230" y="310" width="290" height="86" as="geometry" />
        </mxCell>
        <mxCell id="9seu_ElrW7bkLvOsGuvo-51" value="category = &#39;SourceCollection&#39;" style="text;strokeColor=none;fillColor=none;align=left;verticalAlign=top;spacingLeft=4;spacingRight=4;overflow=hidden;rotatable=0;points=[[0,0.5],[1,0.5]];portConstraint=eastwest;" parent="9seu_ElrW7bkLvOsGuvo-50" vertex="1">
          <mxGeometry y="26" width="290" height="26" as="geometry" />
        </mxCell>
        <mxCell id="9seu_ElrW7bkLvOsGuvo-178" value="data: ~ GlobalCanvasSourceCollectionNodeData" style="text;strokeColor=none;fillColor=none;align=left;verticalAlign=top;spacingLeft=4;spacingRight=4;overflow=hidden;rotatable=0;points=[[0,0.5],[1,0.5]];portConstraint=eastwest;fontSize=12;" parent="9seu_ElrW7bkLvOsGuvo-50" vertex="1">
          <mxGeometry y="52" width="290" height="26" as="geometry" />
        </mxCell>
        <mxCell id="9seu_ElrW7bkLvOsGuvo-52" value="" style="line;strokeWidth=1;fillColor=none;align=left;verticalAlign=middle;spacingTop=-1;spacingLeft=3;spacingRight=3;rotatable=0;labelPosition=right;points=[];portConstraint=eastwest;" parent="9seu_ElrW7bkLvOsGuvo-50" vertex="1">
          <mxGeometry y="78" width="290" height="8" as="geometry" />
        </mxCell>
        <mxCell id="9seu_ElrW7bkLvOsGuvo-56" value="GlobalCanvasTransformNode" style="swimlane;fontStyle=1;align=center;verticalAlign=top;childLayout=stackLayout;horizontal=1;startSize=26;horizontalStack=0;resizeParent=1;resizeParentMax=0;resizeLast=0;collapsible=1;marginBottom=0;" parent="1" vertex="1">
          <mxGeometry x="-260" y="330" width="180" height="60" as="geometry" />
        </mxCell>
        <mxCell id="9seu_ElrW7bkLvOsGuvo-57" value="category = &#39;Transform&#39;" style="text;strokeColor=none;fillColor=none;align=left;verticalAlign=top;spacingLeft=4;spacingRight=4;overflow=hidden;rotatable=0;points=[[0,0.5],[1,0.5]];portConstraint=eastwest;" parent="9seu_ElrW7bkLvOsGuvo-56" vertex="1">
          <mxGeometry y="26" width="180" height="26" as="geometry" />
        </mxCell>
        <mxCell id="9seu_ElrW7bkLvOsGuvo-58" value="" style="line;strokeWidth=1;fillColor=none;align=left;verticalAlign=middle;spacingTop=-1;spacingLeft=3;spacingRight=3;rotatable=0;labelPosition=right;points=[];portConstraint=eastwest;" parent="9seu_ElrW7bkLvOsGuvo-56" vertex="1">
          <mxGeometry y="52" width="180" height="8" as="geometry" />
        </mxCell>
        <mxCell id="9seu_ElrW7bkLvOsGuvo-76" value="GlobalCanvasSourceSystemNode" style="swimlane;fontStyle=1;align=center;verticalAlign=top;childLayout=stackLayout;horizontal=1;startSize=26;horizontalStack=0;resizeParent=1;resizeParentMax=0;resizeLast=0;collapsible=1;marginBottom=0;" parent="1" vertex="1">
          <mxGeometry x="540" y="250" width="290" height="86" as="geometry" />
        </mxCell>
        <mxCell id="9seu_ElrW7bkLvOsGuvo-77" value="category = &#39;SourceCollection&#39;" style="text;strokeColor=none;fillColor=none;align=left;verticalAlign=top;spacingLeft=4;spacingRight=4;overflow=hidden;rotatable=0;points=[[0,0.5],[1,0.5]];portConstraint=eastwest;" parent="9seu_ElrW7bkLvOsGuvo-76" vertex="1">
          <mxGeometry y="26" width="290" height="26" as="geometry" />
        </mxCell>
        <mxCell id="9seu_ElrW7bkLvOsGuvo-185" value="data: ~ GlobalCanvasSourceSystemNodeData" style="text;strokeColor=none;fillColor=none;align=left;verticalAlign=top;spacingLeft=4;spacingRight=4;overflow=hidden;rotatable=0;points=[[0,0.5],[1,0.5]];portConstraint=eastwest;fontSize=12;" parent="9seu_ElrW7bkLvOsGuvo-76" vertex="1">
          <mxGeometry y="52" width="290" height="26" as="geometry" />
        </mxCell>
        <mxCell id="9seu_ElrW7bkLvOsGuvo-78" value="" style="line;strokeWidth=1;fillColor=none;align=left;verticalAlign=middle;spacingTop=-1;spacingLeft=3;spacingRight=3;rotatable=0;labelPosition=right;points=[];portConstraint=eastwest;" parent="9seu_ElrW7bkLvOsGuvo-76" vertex="1">
          <mxGeometry y="78" width="290" height="8" as="geometry" />
        </mxCell>
        <mxCell id="9seu_ElrW7bkLvOsGuvo-83" value="Added as seed data" style="text;html=1;strokeColor=none;fillColor=none;align=center;verticalAlign=middle;whiteSpace=wrap;rounded=0;" parent="1" vertex="1">
          <mxGeometry x="-15" y="93" width="145" height="20" as="geometry" />
        </mxCell>
        <mxCell id="9seu_ElrW7bkLvOsGuvo-85" value="UiDiagramNode" style="swimlane;fontStyle=1;align=center;verticalAlign=top;childLayout=stackLayout;horizontal=1;startSize=26;horizontalStack=0;resizeParent=1;resizeParentMax=0;resizeLast=0;collapsible=1;marginBottom=0;" parent="1" vertex="1">
          <mxGeometry x="-640" y="1160" width="310" height="294" as="geometry" />
        </mxCell>
        <mxCell id="9seu_ElrW7bkLvOsGuvo-106" value="shapeType: &quot;Node&quot;" style="text;strokeColor=none;fillColor=none;align=left;verticalAlign=top;spacingLeft=4;spacingRight=4;overflow=hidden;rotatable=0;points=[[0,0.5],[1,0.5]];portConstraint=eastwest;fontSize=12;" parent="9seu_ElrW7bkLvOsGuvo-85" vertex="1">
          <mxGeometry y="26" width="310" height="26" as="geometry" />
        </mxCell>
        <mxCell id="9seu_ElrW7bkLvOsGuvo-86" value="name: string" style="text;strokeColor=none;fillColor=none;align=left;verticalAlign=top;spacingLeft=4;spacingRight=4;overflow=hidden;rotatable=0;points=[[0,0.5],[1,0.5]];portConstraint=eastwest;" parent="9seu_ElrW7bkLvOsGuvo-85" vertex="1">
          <mxGeometry y="52" width="310" height="26" as="geometry" />
        </mxCell>
        <mxCell id="9seu_ElrW7bkLvOsGuvo-90" value="id: string" style="text;strokeColor=none;fillColor=none;align=left;verticalAlign=top;spacingLeft=4;spacingRight=4;overflow=hidden;rotatable=0;points=[[0,0.5],[1,0.5]];portConstraint=eastwest;" parent="9seu_ElrW7bkLvOsGuvo-85" vertex="1">
          <mxGeometry y="78" width="310" height="26" as="geometry" />
        </mxCell>
        <mxCell id="9seu_ElrW7bkLvOsGuvo-121" value="minimized: boolean" style="text;strokeColor=none;fillColor=none;align=left;verticalAlign=top;spacingLeft=4;spacingRight=4;overflow=hidden;rotatable=0;points=[[0,0.5],[1,0.5]];portConstraint=eastwest;fontSize=12;" parent="9seu_ElrW7bkLvOsGuvo-85" vertex="1">
          <mxGeometry y="104" width="310" height="26" as="geometry" />
        </mxCell>
        <mxCell id="9seu_ElrW7bkLvOsGuvo-123" value="geometry: Geometry" style="text;strokeColor=none;fillColor=none;align=left;verticalAlign=top;spacingLeft=4;spacingRight=4;overflow=hidden;rotatable=0;points=[[0,0.5],[1,0.5]];portConstraint=eastwest;fontSize=12;" parent="9seu_ElrW7bkLvOsGuvo-85" vertex="1">
          <mxGeometry y="130" width="310" height="26" as="geometry" />
        </mxCell>
        <mxCell id="9seu_ElrW7bkLvOsGuvo-124" value="children: [UiDiagramNodeChild] " style="text;strokeColor=none;fillColor=none;align=left;verticalAlign=top;spacingLeft=4;spacingRight=4;overflow=hidden;rotatable=0;points=[[0,0.5],[1,0.5]];portConstraint=eastwest;fontSize=12;" parent="9seu_ElrW7bkLvOsGuvo-85" vertex="1">
          <mxGeometry y="156" width="310" height="26" as="geometry" />
        </mxCell>
        <mxCell id="W5JnB2GHB7pkuFuvYpWC-2" value="expandable: boolean // perhaps should be in categoryMap" style="text;strokeColor=none;fillColor=none;align=left;verticalAlign=top;spacingLeft=4;spacingRight=4;overflow=hidden;rotatable=0;points=[[0,0.5],[1,0.5]];portConstraint=eastwest;" vertex="1" parent="9seu_ElrW7bkLvOsGuvo-85">
          <mxGeometry y="182" width="310" height="26" as="geometry" />
        </mxCell>
        <mxCell id="9seu_ElrW7bkLvOsGuvo-87" value="" style="line;strokeWidth=1;fillColor=none;align=left;verticalAlign=middle;spacingTop=-1;spacingLeft=3;spacingRight=3;rotatable=0;labelPosition=right;points=[];portConstraint=eastwest;" parent="9seu_ElrW7bkLvOsGuvo-85" vertex="1">
          <mxGeometry y="208" width="310" height="8" as="geometry" />
        </mxCell>
        <mxCell id="9seu_ElrW7bkLvOsGuvo-88" value="subtitle: string" style="text;strokeColor=none;fillColor=none;align=left;verticalAlign=top;spacingLeft=4;spacingRight=4;overflow=hidden;rotatable=0;points=[[0,0.5],[1,0.5]];portConstraint=eastwest;" parent="9seu_ElrW7bkLvOsGuvo-85" vertex="1">
          <mxGeometry y="216" width="310" height="26" as="geometry" />
        </mxCell>
        <mxCell id="9seu_ElrW7bkLvOsGuvo-89" value="subtitleTooltip: string" style="text;strokeColor=none;fillColor=none;align=left;verticalAlign=top;spacingLeft=4;spacingRight=4;overflow=hidden;rotatable=0;points=[[0,0.5],[1,0.5]];portConstraint=eastwest;" parent="9seu_ElrW7bkLvOsGuvo-85" vertex="1">
          <mxGeometry y="242" width="310" height="26" as="geometry" />
        </mxCell>
        <mxCell id="9seu_ElrW7bkLvOsGuvo-91" value="category: string serialized GlobalCanvasNodeCategory" style="text;strokeColor=none;fillColor=none;align=left;verticalAlign=top;spacingLeft=4;spacingRight=4;overflow=hidden;rotatable=0;points=[[0,0.5],[1,0.5]];portConstraint=eastwest;" parent="9seu_ElrW7bkLvOsGuvo-85" vertex="1">
          <mxGeometry y="268" width="310" height="26" as="geometry" />
        </mxCell>
        <mxCell id="9seu_ElrW7bkLvOsGuvo-92" value="Diagram" style="text;html=1;strokeColor=none;fillColor=none;align=center;verticalAlign=middle;whiteSpace=wrap;rounded=0;fontStyle=1;fontSize=21;" parent="1" vertex="1">
          <mxGeometry x="-340" y="890" width="210" height="20" as="geometry" />
        </mxCell>
        <mxCell id="9seu_ElrW7bkLvOsGuvo-97" value="UiDiagramEdge" style="swimlane;fontStyle=1;align=center;verticalAlign=top;childLayout=stackLayout;horizontal=1;startSize=26;horizontalStack=0;resizeParent=1;resizeParentMax=0;resizeLast=0;collapsible=1;marginBottom=0;fontSize=12;" parent="1" vertex="1">
          <mxGeometry x="-300" y="1160" width="160" height="86" as="geometry" />
        </mxCell>
        <mxCell id="9seu_ElrW7bkLvOsGuvo-105" value="shapeType: &quot;Edge&quot;" style="text;strokeColor=none;fillColor=none;align=left;verticalAlign=top;spacingLeft=4;spacingRight=4;overflow=hidden;rotatable=0;points=[[0,0.5],[1,0.5]];portConstraint=eastwest;fontSize=12;" parent="9seu_ElrW7bkLvOsGuvo-97" vertex="1">
          <mxGeometry y="26" width="160" height="26" as="geometry" />
        </mxCell>
        <mxCell id="9seu_ElrW7bkLvOsGuvo-99" value="" style="line;strokeWidth=1;fillColor=none;align=left;verticalAlign=middle;spacingTop=-1;spacingLeft=3;spacingRight=3;rotatable=0;labelPosition=right;points=[];portConstraint=eastwest;" parent="9seu_ElrW7bkLvOsGuvo-97" vertex="1">
          <mxGeometry y="52" width="160" height="8" as="geometry" />
        </mxCell>
        <mxCell id="9seu_ElrW7bkLvOsGuvo-100" value="relationship: enum" style="text;strokeColor=none;fillColor=none;align=left;verticalAlign=top;spacingLeft=4;spacingRight=4;overflow=hidden;rotatable=0;points=[[0,0.5],[1,0.5]];portConstraint=eastwest;" parent="9seu_ElrW7bkLvOsGuvo-97" vertex="1">
          <mxGeometry y="60" width="160" height="26" as="geometry" />
        </mxCell>
        <mxCell id="9seu_ElrW7bkLvOsGuvo-107" style="edgeStyle=orthogonalEdgeStyle;rounded=0;orthogonalLoop=1;jettySize=auto;html=1;entryX=0.545;entryY=-0.011;entryDx=0;entryDy=0;entryPerimeter=0;fontSize=12;" parent="1" source="9seu_ElrW7bkLvOsGuvo-101" target="9seu_ElrW7bkLvOsGuvo-85" edge="1">
          <mxGeometry relative="1" as="geometry" />
        </mxCell>
        <mxCell id="9seu_ElrW7bkLvOsGuvo-108" style="edgeStyle=orthogonalEdgeStyle;rounded=0;orthogonalLoop=1;jettySize=auto;html=1;exitX=0.5;exitY=1;exitDx=0;exitDy=0;entryX=0.5;entryY=0;entryDx=0;entryDy=0;fontSize=12;" parent="1" source="9seu_ElrW7bkLvOsGuvo-101" target="9seu_ElrW7bkLvOsGuvo-97" edge="1">
          <mxGeometry relative="1" as="geometry" />
        </mxCell>
        <mxCell id="9seu_ElrW7bkLvOsGuvo-101" value="UiDiagramShape" style="swimlane;fontStyle=1;align=center;verticalAlign=top;childLayout=stackLayout;horizontal=1;startSize=26;horizontalStack=0;resizeParent=1;resizeParentMax=0;resizeLast=0;collapsible=1;marginBottom=0;fontSize=12;" parent="1" vertex="1">
          <mxGeometry x="-440" y="960" width="160" height="86" as="geometry" />
        </mxCell>
        <mxCell id="9seu_ElrW7bkLvOsGuvo-102" value="shapeType" style="text;strokeColor=none;fillColor=none;align=left;verticalAlign=top;spacingLeft=4;spacingRight=4;overflow=hidden;rotatable=0;points=[[0,0.5],[1,0.5]];portConstraint=eastwest;" parent="9seu_ElrW7bkLvOsGuvo-101" vertex="1">
          <mxGeometry y="26" width="160" height="26" as="geometry" />
        </mxCell>
        <mxCell id="9seu_ElrW7bkLvOsGuvo-103" value="" style="line;strokeWidth=1;fillColor=none;align=left;verticalAlign=middle;spacingTop=-1;spacingLeft=3;spacingRight=3;rotatable=0;labelPosition=right;points=[];portConstraint=eastwest;" parent="9seu_ElrW7bkLvOsGuvo-101" vertex="1">
          <mxGeometry y="52" width="160" height="8" as="geometry" />
        </mxCell>
        <mxCell id="9seu_ElrW7bkLvOsGuvo-104" value="visible: boolean" style="text;strokeColor=none;fillColor=none;align=left;verticalAlign=top;spacingLeft=4;spacingRight=4;overflow=hidden;rotatable=0;points=[[0,0.5],[1,0.5]];portConstraint=eastwest;" parent="9seu_ElrW7bkLvOsGuvo-101" vertex="1">
          <mxGeometry y="60" width="160" height="26" as="geometry" />
        </mxCell>
        <mxCell id="9seu_ElrW7bkLvOsGuvo-113" value="&lt;div&gt;Diagram Props&lt;br&gt;&lt;/div&gt;&lt;ul&gt;&lt;li&gt;nodes: [UiDiagramNode]&lt;/li&gt;&lt;li&gt;edges: [UiDiagramEdge]&lt;/li&gt;&lt;li&gt;nodeCategoryStyling: map&amp;lt;category, icon&amp;amp;color&amp;gt;&lt;/li&gt;&lt;li&gt;childCategoryStyling: map&amp;lt;category, icon&amp;amp;color&amp;gt;&lt;br&gt;&lt;/li&gt;&lt;li&gt;nodeContextMenus: [UiDiagramNodeMenuItem] // can be category based in the future&lt;/li&gt;&lt;li&gt;renderQueue? &lt;br&gt;&lt;/li&gt;&lt;/ul&gt;" style="text;html=1;strokeColor=none;fillColor=none;align=left;verticalAlign=top;whiteSpace=wrap;rounded=0;fontSize=12;" parent="1" vertex="1">
          <mxGeometry x="-120" y="906" width="540" height="110" as="geometry" />
        </mxCell>
        <mxCell id="9seu_ElrW7bkLvOsGuvo-118" value="&lt;div&gt;CanvasToDiagramTransform&lt;/div&gt;&lt;div&gt;&lt;ul&gt;&lt;li&gt;Loops through nodes to convert to UiDiagramNode with custom transform per category&lt;/li&gt;&lt;ul&gt;&lt;li&gt;Entity -&amp;gt; EntityGraphNodeToDiagram&lt;/li&gt;&lt;li&gt;Can use pluggable and then `accept` API&lt;/li&gt;&lt;/ul&gt;&lt;li&gt;Entity transform populate UiDiagramChildNode based on `fields` in Type (filter and order the fields: Nathan)&lt;br&gt;&lt;/li&gt;&lt;/ul&gt;&lt;ul&gt;&lt;li&gt;Loops through edges &lt;br&gt;&lt;/li&gt;&lt;/ul&gt;&lt;/div&gt;" style="text;html=1;strokeColor=none;fillColor=none;align=left;verticalAlign=top;whiteSpace=wrap;rounded=0;fontSize=12;" parent="1" vertex="1">
          <mxGeometry x="-100" y="1029" width="430" height="174" as="geometry" />
        </mxCell>
        <mxCell id="9seu_ElrW7bkLvOsGuvo-122" value="&lt;div align=&quot;left&quot;&gt;UiSdiDiagramReact.updateNodesWithComponent only really needs to check minimized boolean. In the future, it can be driven by category but so far all nodes seem fairly standard &lt;/div&gt;" style="text;html=1;strokeColor=none;fillColor=none;align=left;verticalAlign=middle;whiteSpace=wrap;rounded=0;fontSize=12;" parent="1" vertex="1">
          <mxGeometry x="-40" y="1230" width="380" height="40" as="geometry" />
        </mxCell>
        <mxCell id="9seu_ElrW7bkLvOsGuvo-134" value="UiDiagramNodeChild" style="swimlane;fontStyle=1;align=center;verticalAlign=top;childLayout=stackLayout;horizontal=1;startSize=26;horizontalStack=0;resizeParent=1;resizeParentMax=0;resizeLast=0;collapsible=1;marginBottom=0;fontSize=12;" parent="1" vertex="1">
          <mxGeometry x="-290" y="1349" width="430" height="138" as="geometry" />
        </mxCell>
        <mxCell id="9seu_ElrW7bkLvOsGuvo-135" value="id: string" style="text;strokeColor=none;fillColor=none;align=left;verticalAlign=top;spacingLeft=4;spacingRight=4;overflow=hidden;rotatable=0;points=[[0,0.5],[1,0.5]];portConstraint=eastwest;" parent="9seu_ElrW7bkLvOsGuvo-134" vertex="1">
          <mxGeometry y="26" width="430" height="26" as="geometry" />
        </mxCell>
        <mxCell id="9seu_ElrW7bkLvOsGuvo-138" value="name: string" style="text;strokeColor=none;fillColor=none;align=left;verticalAlign=top;spacingLeft=4;spacingRight=4;overflow=hidden;rotatable=0;points=[[0,0.5],[1,0.5]];portConstraint=eastwest;fontSize=12;" parent="9seu_ElrW7bkLvOsGuvo-134" vertex="1">
          <mxGeometry y="52" width="430" height="26" as="geometry" />
        </mxCell>
        <mxCell id="9seu_ElrW7bkLvOsGuvo-139" value="subtitle: string" style="text;strokeColor=none;fillColor=none;align=left;verticalAlign=top;spacingLeft=4;spacingRight=4;overflow=hidden;rotatable=0;points=[[0,0.5],[1,0.5]];portConstraint=eastwest;fontSize=12;" parent="9seu_ElrW7bkLvOsGuvo-134" vertex="1">
          <mxGeometry y="78" width="430" height="26" as="geometry" />
        </mxCell>
        <mxCell id="9seu_ElrW7bkLvOsGuvo-216" value="category: string // ex: fieldtype - diff than &quot;GlobalCanvasNodeCategory&quot;" style="text;strokeColor=none;fillColor=none;align=left;verticalAlign=top;spacingLeft=4;spacingRight=4;overflow=hidden;rotatable=0;points=[[0,0.5],[1,0.5]];portConstraint=eastwest;fontSize=12;" parent="9seu_ElrW7bkLvOsGuvo-134" vertex="1">
          <mxGeometry y="104" width="430" height="26" as="geometry" />
        </mxCell>
        <mxCell id="9seu_ElrW7bkLvOsGuvo-136" value="" style="line;strokeWidth=1;fillColor=none;align=left;verticalAlign=middle;spacingTop=-1;spacingLeft=3;spacingRight=3;rotatable=0;labelPosition=right;points=[];portConstraint=eastwest;" parent="9seu_ElrW7bkLvOsGuvo-134" vertex="1">
          <mxGeometry y="130" width="430" height="8" as="geometry" />
        </mxCell>
        <mxCell id="9seu_ElrW7bkLvOsGuvo-141" style="edgeStyle=orthogonalEdgeStyle;rounded=0;orthogonalLoop=1;jettySize=auto;html=1;exitX=1;exitY=0.5;exitDx=0;exitDy=0;entryX=0.5;entryY=0;entryDx=0;entryDy=0;fontSize=12;" parent="1" source="9seu_ElrW7bkLvOsGuvo-124" target="9seu_ElrW7bkLvOsGuvo-134" edge="1">
          <mxGeometry relative="1" as="geometry" />
        </mxCell>
        <mxCell id="9seu_ElrW7bkLvOsGuvo-144" value="GlobalCanvasEdge" style="swimlane;fontStyle=1;align=center;verticalAlign=top;childLayout=stackLayout;horizontal=1;startSize=26;horizontalStack=0;resizeParent=1;resizeParentMax=0;resizeLast=0;collapsible=1;marginBottom=0;fontSize=12;" parent="1" vertex="1">
          <mxGeometry x="-330" y="60" width="160" height="86" as="geometry" />
        </mxCell>
        <mxCell id="9seu_ElrW7bkLvOsGuvo-145" value="id: string" style="text;strokeColor=none;fillColor=none;align=left;verticalAlign=top;spacingLeft=4;spacingRight=4;overflow=hidden;rotatable=0;points=[[0,0.5],[1,0.5]];portConstraint=eastwest;" parent="9seu_ElrW7bkLvOsGuvo-144" vertex="1">
          <mxGeometry y="26" width="160" height="26" as="geometry" />
        </mxCell>
        <mxCell id="9seu_ElrW7bkLvOsGuvo-149" value="relationship: string" style="text;strokeColor=none;fillColor=none;align=left;verticalAlign=top;spacingLeft=4;spacingRight=4;overflow=hidden;rotatable=0;points=[[0,0.5],[1,0.5]];portConstraint=eastwest;fontSize=12;" parent="9seu_ElrW7bkLvOsGuvo-144" vertex="1">
          <mxGeometry y="52" width="160" height="26" as="geometry" />
        </mxCell>
        <mxCell id="9seu_ElrW7bkLvOsGuvo-146" value="" style="line;strokeWidth=1;fillColor=none;align=left;verticalAlign=middle;spacingTop=-1;spacingLeft=3;spacingRight=3;rotatable=0;labelPosition=right;points=[];portConstraint=eastwest;" parent="9seu_ElrW7bkLvOsGuvo-144" vertex="1">
          <mxGeometry y="78" width="160" height="8" as="geometry" />
        </mxCell>
        <mxCell id="9seu_ElrW7bkLvOsGuvo-150" value="relationship is not populated when it is a node level edge (initial render). &lt;br&gt;&lt;div&gt;When fields are expanded and we need to build more edges, the app state logic needs to remove this placeholder edge and then add the ones that have`fromInfo` and `toInfo` (the field names)&lt;/div&gt;&lt;div&gt;&lt;br&gt;&lt;/div&gt;&lt;div&gt;It no longer seems necessary for the node itself to have a reference to all of its fields since they will be populated &quot;on demand&quot; in data and then the UI transforms take care of getting it to the UiDiagramNode.children&lt;/div&gt;&lt;div&gt;Only reason against it is keeping it in sync with data info (ex: add a field = update 2 places)&lt;br&gt;&lt;/div&gt;&lt;div&gt;&lt;br&gt;&lt;/div&gt;" style="text;html=1;strokeColor=none;fillColor=none;align=left;verticalAlign=middle;whiteSpace=wrap;rounded=0;fontSize=12;" parent="1" vertex="1">
          <mxGeometry x="-590" y="75" width="250" height="225" as="geometry" />
        </mxCell>
        <mxCell id="9seu_ElrW7bkLvOsGuvo-151" value="Common Graph Model (State)" style="text;html=1;strokeColor=none;fillColor=none;align=center;verticalAlign=middle;whiteSpace=wrap;rounded=0;fontSize=21;fontStyle=1" parent="1" vertex="1">
          <mxGeometry x="223" y="50" width="247" height="20" as="geometry" />
        </mxCell>
        <mxCell id="9seu_ElrW7bkLvOsGuvo-154" value="&lt;div&gt;Common State will hold reference to this graph and the &quot;node details&quot; &lt;br&gt;&lt;/div&gt;&lt;div&gt;The &quot;node details&quot; can either be will be a flat or have field for &quot;details&quot;. &lt;br&gt;&lt;/div&gt;&lt;div&gt;Feels cleaner to have whatever can be extra info/changed from canvas in own field on the node&lt;br&gt;&lt;/div&gt;" style="text;html=1;strokeColor=none;fillColor=none;align=left;verticalAlign=top;whiteSpace=wrap;rounded=0;fontSize=12;" parent="1" vertex="1">
          <mxGeometry x="610" y="40" width="260" height="130" as="geometry" />
        </mxCell>
        <mxCell id="9seu_ElrW7bkLvOsGuvo-202" style="edgeStyle=orthogonalEdgeStyle;rounded=0;orthogonalLoop=1;jettySize=auto;html=1;exitX=0.5;exitY=1;exitDx=0;exitDy=0;entryX=0.5;entryY=0;entryDx=0;entryDy=0;fontSize=12;" parent="1" source="9seu_ElrW7bkLvOsGuvo-157" target="9seu_ElrW7bkLvOsGuvo-162" edge="1">
          <mxGeometry relative="1" as="geometry" />
        </mxCell>
        <mxCell id="9seu_ElrW7bkLvOsGuvo-203" style="edgeStyle=orthogonalEdgeStyle;rounded=0;orthogonalLoop=1;jettySize=auto;html=1;fontSize=12;" parent="1" source="9seu_ElrW7bkLvOsGuvo-157" target="9seu_ElrW7bkLvOsGuvo-170" edge="1">
          <mxGeometry relative="1" as="geometry">
            <mxPoint x="360" y="570" as="targetPoint" />
          </mxGeometry>
        </mxCell>
        <mxCell id="9seu_ElrW7bkLvOsGuvo-204" style="edgeStyle=orthogonalEdgeStyle;rounded=0;orthogonalLoop=1;jettySize=auto;html=1;exitX=0.5;exitY=1;exitDx=0;exitDy=0;fontSize=12;" parent="1" source="9seu_ElrW7bkLvOsGuvo-157" target="9seu_ElrW7bkLvOsGuvo-180" edge="1">
          <mxGeometry relative="1" as="geometry" />
        </mxCell>
        <mxCell id="9seu_ElrW7bkLvOsGuvo-157" value="GlobalCanvasNodeData" style="swimlane;fontStyle=1;align=center;verticalAlign=top;childLayout=stackLayout;horizontal=1;startSize=26;horizontalStack=0;resizeParent=1;resizeParentMax=0;resizeLast=0;collapsible=1;marginBottom=0;fontSize=12;" parent="1" vertex="1">
          <mxGeometry x="325" y="440" width="160" height="52" as="geometry" />
        </mxCell>
        <mxCell id="9seu_ElrW7bkLvOsGuvo-158" value="name: string" style="text;strokeColor=none;fillColor=none;align=left;verticalAlign=top;spacingLeft=4;spacingRight=4;overflow=hidden;rotatable=0;points=[[0,0.5],[1,0.5]];portConstraint=eastwest;" parent="9seu_ElrW7bkLvOsGuvo-157" vertex="1">
          <mxGeometry y="26" width="160" height="26" as="geometry" />
        </mxCell>
        <mxCell id="9seu_ElrW7bkLvOsGuvo-193" style="edgeStyle=orthogonalEdgeStyle;rounded=0;orthogonalLoop=1;jettySize=auto;html=1;exitX=1;exitY=0.25;exitDx=0;exitDy=0;entryX=0.5;entryY=0;entryDx=0;entryDy=0;fontSize=12;" parent="1" source="9seu_ElrW7bkLvOsGuvo-162" target="9seu_ElrW7bkLvOsGuvo-17" edge="1">
          <mxGeometry relative="1" as="geometry" />
        </mxCell>
        <mxCell id="9seu_ElrW7bkLvOsGuvo-162" value="GlobalCanvasTypeNodeData" style="swimlane;fontStyle=1;align=center;verticalAlign=top;childLayout=stackLayout;horizontal=1;startSize=26;horizontalStack=0;resizeParent=1;resizeParentMax=0;resizeLast=0;collapsible=1;marginBottom=0;fontSize=12;" parent="1" vertex="1">
          <mxGeometry x="-60" y="563" width="190" height="52" as="geometry" />
        </mxCell>
        <mxCell id="9seu_ElrW7bkLvOsGuvo-205" value="fieldCount: int" style="text;strokeColor=none;fillColor=none;align=left;verticalAlign=top;spacingLeft=4;spacingRight=4;overflow=hidden;rotatable=0;points=[[0,0.5],[1,0.5]];portConstraint=eastwest;fontSize=12;" parent="9seu_ElrW7bkLvOsGuvo-162" vertex="1">
          <mxGeometry y="26" width="190" height="26" as="geometry" />
        </mxCell>
        <mxCell id="9seu_ElrW7bkLvOsGuvo-170" value="GlobalCanvasSourceCollectionNodeData" style="swimlane;fontStyle=1;align=center;verticalAlign=top;childLayout=stackLayout;horizontal=1;startSize=26;horizontalStack=0;resizeParent=1;resizeParentMax=0;resizeLast=0;collapsible=1;marginBottom=0;fontSize=12;" parent="1" vertex="1">
          <mxGeometry x="260" y="563" width="290" height="112" as="geometry" />
        </mxCell>
        <mxCell id="9seu_ElrW7bkLvOsGuvo-73" value="instanceId: string" style="text;strokeColor=none;fillColor=none;align=left;verticalAlign=top;spacingLeft=4;spacingRight=4;overflow=hidden;rotatable=0;points=[[0,0.5],[1,0.5]];portConstraint=eastwest;" parent="9seu_ElrW7bkLvOsGuvo-170" vertex="1">
          <mxGeometry y="26" width="290" height="26" as="geometry" />
        </mxCell>
        <mxCell id="9seu_ElrW7bkLvOsGuvo-74" value="instanceName: string" style="text;strokeColor=none;fillColor=none;align=left;verticalAlign=top;spacingLeft=4;spacingRight=4;overflow=hidden;rotatable=0;points=[[0,0.5],[1,0.5]];portConstraint=eastwest;" parent="9seu_ElrW7bkLvOsGuvo-170" vertex="1">
          <mxGeometry y="52" width="290" height="26" as="geometry" />
        </mxCell>
        <mxCell id="9seu_ElrW7bkLvOsGuvo-75" value="sourceCategory: string enum" style="text;strokeColor=none;fillColor=none;align=left;verticalAlign=top;spacingLeft=4;spacingRight=4;overflow=hidden;rotatable=0;points=[[0,0.5],[1,0.5]];portConstraint=eastwest;" parent="9seu_ElrW7bkLvOsGuvo-170" vertex="1">
          <mxGeometry y="78" width="290" height="26" as="geometry" />
        </mxCell>
        <mxCell id="9seu_ElrW7bkLvOsGuvo-172" value="" style="line;strokeWidth=1;fillColor=none;align=left;verticalAlign=middle;spacingTop=-1;spacingLeft=3;spacingRight=3;rotatable=0;labelPosition=right;points=[];portConstraint=eastwest;" parent="9seu_ElrW7bkLvOsGuvo-170" vertex="1">
          <mxGeometry y="104" width="290" height="8" as="geometry" />
        </mxCell>
        <mxCell id="9seu_ElrW7bkLvOsGuvo-180" value="GlobalCanvasSourceSystemNodeData" style="swimlane;fontStyle=1;align=center;verticalAlign=top;childLayout=stackLayout;horizontal=1;startSize=26;horizontalStack=0;resizeParent=1;resizeParentMax=0;resizeLast=0;collapsible=1;marginBottom=0;fontSize=12;" parent="1" vertex="1">
          <mxGeometry x="610" y="563" width="290" height="86" as="geometry" />
        </mxCell>
        <mxCell id="9seu_ElrW7bkLvOsGuvo-181" value="instanceId: string" style="text;strokeColor=none;fillColor=none;align=left;verticalAlign=top;spacingLeft=4;spacingRight=4;overflow=hidden;rotatable=0;points=[[0,0.5],[1,0.5]];portConstraint=eastwest;" parent="9seu_ElrW7bkLvOsGuvo-180" vertex="1">
          <mxGeometry y="26" width="290" height="26" as="geometry" />
        </mxCell>
        <mxCell id="9seu_ElrW7bkLvOsGuvo-182" value="instanceName: string" style="text;strokeColor=none;fillColor=none;align=left;verticalAlign=top;spacingLeft=4;spacingRight=4;overflow=hidden;rotatable=0;points=[[0,0.5],[1,0.5]];portConstraint=eastwest;" parent="9seu_ElrW7bkLvOsGuvo-180" vertex="1">
          <mxGeometry y="52" width="290" height="26" as="geometry" />
        </mxCell>
        <mxCell id="9seu_ElrW7bkLvOsGuvo-184" value="" style="line;strokeWidth=1;fillColor=none;align=left;verticalAlign=middle;spacingTop=-1;spacingLeft=3;spacingRight=3;rotatable=0;labelPosition=right;points=[];portConstraint=eastwest;" parent="9seu_ElrW7bkLvOsGuvo-180" vertex="1">
          <mxGeometry y="78" width="290" height="8" as="geometry" />
        </mxCell>
        <mxCell id="9seu_ElrW7bkLvOsGuvo-188" style="edgeStyle=orthogonalEdgeStyle;rounded=0;orthogonalLoop=1;jettySize=auto;html=1;exitX=0;exitY=0.5;exitDx=0;exitDy=0;entryX=1;entryY=0.25;entryDx=0;entryDy=0;fontSize=12;" parent="1" source="9seu_ElrW7bkLvOsGuvo-10" target="9seu_ElrW7bkLvOsGuvo-1" edge="1">
          <mxGeometry relative="1" as="geometry" />
        </mxCell>
        <mxCell id="9seu_ElrW7bkLvOsGuvo-207" value="&lt;div align=&quot;left&quot;&gt;Diagram only uses this field when data.fields is not populated. App state needs to keep this in sync when updating TypeInfo :(&lt;br&gt;&lt;/div&gt;" style="text;html=1;strokeColor=none;fillColor=none;align=left;verticalAlign=middle;whiteSpace=wrap;rounded=0;fontSize=12;" parent="1" vertex="1">
          <mxGeometry x="-230" y="565" width="150" height="110" as="geometry" />
        </mxCell>
        <mxCell id="9seu_ElrW7bkLvOsGuvo-208" value="Not sure if these should be in NodeData or Node itself - we dont know Project X flow for these nodes yet" style="text;html=1;strokeColor=none;fillColor=none;align=center;verticalAlign=middle;whiteSpace=wrap;rounded=0;fontSize=12;" parent="1" vertex="1">
          <mxGeometry x="570" y="680" width="220" height="20" as="geometry" />
        </mxCell>
        <mxCell id="9seu_ElrW7bkLvOsGuvo-209" value="&lt;div&gt;On Node Expansion,&lt;/div&gt;&lt;div&gt;&lt;br&gt;&lt;/div&gt;&lt;div&gt;forward to Generic Fetch Epic. Set &quot;expanded&quot; state = true if necessary. &lt;br&gt;&lt;/div&gt;&lt;div&gt;&lt;br&gt;&lt;/div&gt;&lt;div&gt;The diagram transform will take care of ordering and filtering the fields.&lt;br&gt;&lt;/div&gt;&lt;div&gt;&lt;br&gt;&lt;/div&gt;" style="text;html=1;strokeColor=none;fillColor=none;align=left;verticalAlign=top;whiteSpace=wrap;rounded=0;fontSize=12;" parent="1" vertex="1">
          <mxGeometry x="1300" y="29" width="360" height="131" as="geometry" />
        </mxCell>
        <mxCell id="9seu_ElrW7bkLvOsGuvo-210" value="&lt;div align=&quot;left&quot;&gt;&lt;font style=&quot;font-size: 15px&quot;&gt;More Category based registrations (should look to consolidate methods)&lt;/font&gt;&lt;br&gt;&lt;/div&gt;&lt;div align=&quot;left&quot;&gt;type GlobalCanvasNode&lt;br&gt;&lt;ul&gt;&lt;li&gt;accept(node) // default will accept based on category&lt;br&gt;&lt;/li&gt;&lt;li&gt;transformGlobalCanvasNodeToDiagramNode(node): UiDiagramNode&lt;br&gt;&lt;/li&gt;&lt;li&gt;hasGlobalCanvasNodeBeenFetched(node) : boolean&lt;br&gt;&lt;/li&gt;&lt;li&gt;fetchGlobalCanvasNodeData(fetchInfo: FetchGlobalCanvasNodeFetchInfo): Promise&amp;lt;FetchGlobalCanvasNodeResult&amp;gt;&lt;/li&gt;&lt;/ul&gt;&lt;/div&gt;&amp;nbsp;" style="text;html=1;strokeColor=none;fillColor=none;align=left;verticalAlign=top;whiteSpace=wrap;rounded=0;fontSize=12;" parent="1" vertex="1">
          <mxGeometry x="940" y="280" width="730" height="130" as="geometry" />
        </mxCell>
        <mxCell id="9seu_ElrW7bkLvOsGuvo-211" value="&lt;div&gt;EntityCategoryRegistration&lt;/div&gt;&lt;div&gt;&lt;br&gt;&lt;/div&gt;&lt;div&gt;export function accept(node: GlobalCanvasNode) {&lt;/div&gt;&lt;div&gt;&amp;nbsp;&amp;nbsp; return defaultValues.category == node.category;&lt;br&gt;&lt;/div&gt;&lt;div&gt;}&lt;/div&gt;&lt;div&gt;&lt;br&gt;&lt;/div&gt;&lt;div&gt;export function transformGlobalCanvasNodeToDiagramNode(node) {&lt;br&gt;&amp;nbsp;&amp;nbsp; // name, subtitle taken from field count, tooltip hardcoded&lt;/div&gt;&lt;div&gt;&amp;nbsp;&amp;nbsp; // populate children based on node.data.fields&lt;br&gt;&lt;/div&gt;&lt;div&gt;}&lt;/div&gt;&lt;div&gt;&lt;br&gt;&lt;/div&gt;&lt;div&gt;export function hasGlobalCanvasNodeBeenFetched(node) {&lt;/div&gt;&lt;div&gt;&amp;nbsp;&amp;nbsp; return typeof node.data.fields === &#39;undefined&#39; // or whatever&lt;br&gt;&lt;/div&gt;&lt;div&gt;}&lt;/div&gt;&lt;div&gt;&lt;br&gt;&lt;/div&gt;&lt;div&gt;export async function fetchGlobalCanvasNodeData(node, tunnelConfig) {&lt;/div&gt;&lt;div&gt;&amp;nbsp;&amp;nbsp;&amp;nbsp; const typeWorker = await startWorker(...);&lt;/div&gt;&lt;div&gt;&amp;nbsp;&amp;nbsp;&amp;nbsp; // setTunnelConfig&lt;/div&gt;&lt;div&gt;&amp;nbsp;&amp;nbsp;&amp;nbsp; const typeInfo = typeWorker.getTypeInfo(node.data.name);&lt;/div&gt;&lt;div&gt;&amp;nbsp;&amp;nbsp;&amp;nbsp; // construct new edges&lt;/div&gt;&lt;div&gt;&amp;nbsp;&amp;nbsp;&amp;nbsp; return FetchGlobalCanvasNodeResult.make(...);&lt;br&gt;&lt;/div&gt;&lt;div&gt;}&lt;br&gt;&lt;/div&gt;" style="text;html=1;strokeColor=none;fillColor=none;align=left;verticalAlign=top;whiteSpace=wrap;rounded=0;fontSize=12;" parent="1" vertex="1">
          <mxGeometry x="980" y="640" width="670" height="310" as="geometry" />
        </mxCell>
        <mxCell id="9seu_ElrW7bkLvOsGuvo-212" value="&lt;div&gt;&lt;b&gt;&lt;font style=&quot;font-size: 16px&quot;&gt;Additional State (aka important between components)&lt;/font&gt;&lt;br&gt;&lt;/b&gt;&lt;/div&gt;&lt;div&gt;&lt;br&gt;&lt;/div&gt;&lt;div&gt;&lt;ul&gt;&lt;li&gt;hiddenNodes: [string] - seems old to put the visibility state on the node itself, but flexible depending on how it makes the context menu items work out &lt;/li&gt;&lt;li&gt;canvasNodeCategoryStyling: map&amp;lt;string, {icon, color}&amp;gt;&lt;/li&gt;&lt;li&gt;canvasEdgeInfosCategoryStyling: map&amp;lt;string, {icon, color}&amp;gt;&lt;/li&gt;&lt;ul&gt;&lt;li&gt;seems out of place with reset of model (since there is no explicit mention of edge.toInfo/fromInfo having a &quot;category&quot;&lt;br&gt;&lt;/li&gt;&lt;/ul&gt;&lt;/ul&gt;&lt;/div&gt;" style="text;html=1;strokeColor=none;fillColor=none;align=left;verticalAlign=top;whiteSpace=wrap;rounded=0;fontSize=12;" parent="1" vertex="1">
          <mxGeometry x="-640" y="396" width="380" height="184" as="geometry" />
        </mxCell>
        <mxCell id="9seu_ElrW7bkLvOsGuvo-213" value="&lt;div&gt;On diagram node select, &lt;br&gt;&lt;/div&gt;&lt;div&gt;forward to Generic Fetch Epic and tell it to dispatch side panel open &lt;br&gt;&lt;/div&gt;" style="text;html=1;strokeColor=none;fillColor=none;align=left;verticalAlign=top;whiteSpace=wrap;rounded=0;fontSize=12;" parent="1" vertex="1">
          <mxGeometry x="1690" y="55" width="270" height="174" as="geometry" />
        </mxCell>
        <mxCell id="9seu_ElrW7bkLvOsGuvo-214" value="Tree: TBD" style="text;html=1;strokeColor=none;fillColor=none;align=center;verticalAlign=middle;whiteSpace=wrap;rounded=0;fontSize=21;fontStyle=1" parent="1" vertex="1">
          <mxGeometry x="700" y="980" width="130" height="70" as="geometry" />
        </mxCell>
        <mxCell id="9seu_ElrW7bkLvOsGuvo-215" value="&lt;div&gt;type FetchGlobalCanvasNodeFetchInfo {&lt;/div&gt;&lt;div&gt;&amp;nbsp;&amp;nbsp; node: GlobalCanvasNode&lt;/div&gt;&lt;div&gt;&amp;nbsp;&amp;nbsp; graph: InMemoryGraph&lt;/div&gt;&lt;div&gt;&amp;nbsp;&amp;nbsp; tunnelConfiguration: TunnelConfiguration&lt;br&gt;&lt;/div&gt;&lt;div&gt;}&lt;/div&gt;&lt;div&gt;&lt;br&gt;&lt;/div&gt;&lt;div&gt;// should this just be a new graph rather than these very specific fields? but then we wont &quot;know&quot; what changed (it might impact rendering - Alex&#39;s render queue) &lt;br&gt;&lt;/div&gt;&lt;div&gt;type FetchGlobalCanvasNodeResult {&lt;/div&gt;&lt;div&gt;&amp;nbsp;&amp;nbsp;&amp;nbsp; nodeData: GlobalCanvasNodeData&lt;/div&gt;&lt;div&gt;&amp;nbsp;&amp;nbsp;&amp;nbsp; additionalEdges: [GlobalCanvasEdge]&lt;br&gt;&lt;/div&gt;&lt;div&gt;}&lt;br&gt;&lt;/div&gt;" style="text;html=1;strokeColor=none;fillColor=none;align=left;verticalAlign=top;whiteSpace=wrap;rounded=0;fontSize=12;" parent="1" vertex="1">
          <mxGeometry x="1020" y="396" width="300" height="224" as="geometry" />
        </mxCell>
        <mxCell id="9seu_ElrW7bkLvOsGuvo-217" value="&lt;div align=&quot;left&quot;&gt;category&lt;/div&gt;&amp;nbsp;icon and color is dependent on seeded data registration that will be loaded into the application state " style="text;html=1;strokeColor=none;fillColor=none;align=left;verticalAlign=top;whiteSpace=wrap;rounded=0;fontSize=12;" parent="1" vertex="1">
          <mxGeometry x="261.5" y="900" width="170" height="80" as="geometry" />
        </mxCell>
        <mxCell id="aVRNRYG7sqWbYA5kR3X1-1" value="&lt;div&gt;&lt;b&gt;&lt;font style=&quot;font-size: 21px&quot;&gt;App State APIs&lt;/font&gt;&lt;br&gt;&lt;/b&gt;&lt;/div&gt;&lt;div&gt;&lt;div&gt;&lt;ul&gt;&lt;li&gt;&lt;b&gt;addNode&lt;/b&gt;&lt;/li&gt;&lt;li&gt;&lt;b&gt;renameNode...?&lt;/b&gt;&lt;/li&gt;&lt;li&gt;&lt;b&gt;TBD&lt;br&gt;&lt;/b&gt;&lt;/li&gt;&lt;/ul&gt;&lt;/div&gt;&lt;/div&gt;" style="text;html=1;strokeColor=none;fillColor=none;align=left;verticalAlign=top;whiteSpace=wrap;rounded=0;fontSize=12;fontStyle=0" parent="1" vertex="1">
          <mxGeometry x="1150" y="1006" width="260" height="144" as="geometry" />
        </mxCell>
        <mxCell id="aVRNRYG7sqWbYA5kR3X1-2" value="&lt;div&gt;&lt;b&gt;&lt;font style=&quot;font-size: 21px&quot;&gt;Type Edit Apis&lt;/font&gt;&lt;/b&gt;&lt;/div&gt;&lt;div&gt;What will each focus out (?) event be triggering? &lt;br&gt;&lt;/div&gt;&lt;div&gt;Where will these actions live? common or dataModel? (probably common since other flows may want to do type edits)&lt;br&gt;&lt;/div&gt;&lt;div&gt;&lt;ul&gt;&lt;li&gt;updateExtendable&lt;br&gt;&lt;/li&gt;&lt;/ul&gt;&lt;/div&gt;" style="text;html=1;strokeColor=none;fillColor=none;align=left;verticalAlign=top;whiteSpace=wrap;rounded=0;fontSize=12;" parent="1" vertex="1">
          <mxGeometry x="1400" y="1009" width="300" height="111" as="geometry" />
        </mxCell>
        <mxCell id="aVRNRYG7sqWbYA5kR3X1-3" value="&lt;div&gt;&lt;b&gt;Generic Fetch Epic&lt;/b&gt;&lt;/div&gt;&lt;div&gt;Given node id, get the common graph node from state.&lt;br&gt;&lt;/div&gt;&lt;div&gt;each node knows its category, and we accept the registered &lt;br&gt;interface which will take the common graph node and determine if it has &lt;br&gt;the info (ex: node.fields !== undefined)&lt;div&gt;&lt;br&gt;&lt;/div&gt;&lt;div&gt;If not, requests to get data based on category and then set in node and dispatch follow up request&lt;/div&gt;&lt;/div&gt;&lt;div&gt;&lt;br&gt;&lt;/div&gt;" style="text;html=1;strokeColor=none;fillColor=none;align=left;verticalAlign=top;whiteSpace=wrap;rounded=0;fontSize=12;fontStyle=0" parent="1" vertex="1">
          <mxGeometry x="970" y="40" width="290" height="160" as="geometry" />
        </mxCell>
        <mxCell id="W5JnB2GHB7pkuFuvYpWC-1" value="&lt;div&gt;Diagram state&lt;/div&gt;&lt;div&gt;&lt;ul&gt;&lt;li&gt;minimizedNodes&lt;/li&gt;&lt;li&gt;nodeGeometry&lt;br&gt;&lt;/li&gt;&lt;/ul&gt;&lt;/div&gt;&lt;div&gt;&lt;br&gt;&lt;/div&gt;" style="text;html=1;strokeColor=none;fillColor=none;align=left;verticalAlign=middle;whiteSpace=wrap;rounded=0;" vertex="1" parent="1">
          <mxGeometry x="-640" y="940" width="170" height="40" as="geometry" />
        </mxCell>
      </root>
    </mxGraphModel>
  </diagram>
</mxfile>
